<?xml version="1.0" standalone="no"?>
<!DOCTYPE svg PUBLIC "-//W3C//DTD SVG 20010904//EN"
 "http://www.w3.org/TR/2001/REC-SVG-20010904/DTD/svg10.dtd">
<svg version="1.0" xmlns="http://www.w3.org/2000/svg"
 width="959.000000pt" height="960.000000pt" viewBox="0 0 959.000000 960.000000"
 preserveAspectRatio="xMidYMid meet">

<g transform="translate(0.000000,960.000000) scale(0.100000,-0.100000)"
fill="#000000" stroke="none">
<path d="M0 4805 l0 -4795 4795 0 4795 0 0 4795 0 4795 -4795 0 -4795 0 0
-4795z m2176 2660 c5 -13 9 -13 21 -3 18 15 243 21 264 7 12 -7 14 -260 17
-1534 1 -839 -1 -1525 -5 -1525 -11 0 -425 215 -628 325 -27 15 -120 63 -205
107 -85 45 -159 84 -165 88 -5 4 -81 44 -168 89 -87 46 -183 97 -215 115 l-57
32 -3 1157 -2 1157 570 0 c502 0 571 -2 576 -15z m6347 6 c26 -1 27 -2 15 -25
-14 -26 -145 -171 -239 -265 -31 -31 -103 -106 -160 -167 -94 -99 -280 -296
-480 -507 -41 -44 -74 -84 -74 -90 0 -9 66 -13 238 -15 l237 -2 1 -43 c0 -23
0 -368 0 -767 l0 -725 -48 -26 c-39 -21 -150 -77 -233 -119 -42 -20 -346 -179
-420 -218 -113 -61 -157 -82 -170 -82 -6 0 -10 66 -11 193 -3 442 -4 2718 -1
2784 l4 73 531 2 c451 3 624 2 810 -1z m-1478 -68 c11 -25 14 -1834 3 -1855
-5 -10 -39 -42 -76 -72 -37 -30 -121 -98 -187 -152 -66 -53 -142 -116 -170
-139 -69 -59 -123 -103 -245 -200 -110 -89 -124 -100 -207 -172 -70 -61 -86
-72 -100 -73 -9 0 -69 46 -193 147 -8 7 -33 27 -56 45 -22 18 -78 65 -124 103
-46 39 -116 95 -156 125 -39 30 -117 93 -173 140 -57 47 -131 108 -166 135
-34 28 -78 62 -96 78 -19 15 -73 59 -121 98 -49 39 -88 73 -88 77 0 7 65 62
74 62 3 0 16 10 29 23 13 12 50 43 83 69 32 26 84 68 114 94 30 25 102 83 160
130 58 47 116 96 130 109 14 14 31 25 38 25 6 0 12 4 12 8 0 12 131 115 147
115 7 0 13 6 13 13 0 8 12 21 28 31 15 10 47 36 72 60 25 23 70 60 100 82 30
22 66 51 80 64 14 13 59 50 100 83 76 60 397 323 481 394 61 52 146 121 178
145 15 11 60 47 100 80 109 88 184 144 197 145 7 0 15 -8 19 -17z m-4352 -86
c15 -15 27 -37 27 -49 0 -16 5 -19 21 -15 13 4 33 -3 52 -16 43 -31 116 -98
115 -106 -2 -18 3 -31 13 -31 5 0 7 5 4 10 -3 6 -2 10 2 10 13 0 48 -44 45
-56 -1 -6 5 -18 15 -25 15 -13 15 -12 4 9 -9 17 -9 22 0 22 12 0 120 -84 180
-140 19 -18 45 -39 59 -48 33 -22 356 -282 760 -612 118 -97 276 -225 350
-285 74 -59 153 -123 175 -141 166 -137 238 -196 293 -238 35 -26 73 -58 86
-70 12 -11 64 -55 116 -96 51 -41 112 -91 136 -110 23 -19 72 -60 110 -90 37
-30 72 -60 78 -65 6 -6 27 -21 46 -35 45 -31 186 -145 225 -183 17 -15 72 -61
124 -100 140 -107 231 -186 231 -201 0 -8 -12 -22 -27 -32 -34 -21 -169 -128
-266 -209 -95 -80 -135 -108 -146 -100 -6 3 -14 -2 -19 -11 -5 -10 -23 -16
-45 -17 -25 -1 -34 -4 -27 -11 16 -16 11 -40 -11 -54 -18 -11 -24 -11 -38 2
-10 9 -21 13 -24 10 -4 -4 -13 -1 -22 6 -9 7 -18 10 -21 7 -10 -10 6 -27 25
-27 18 0 41 -18 41 -32 0 -4 -4 -8 -10 -8 -5 0 -31 -20 -57 -45 -32 -29 -57
-45 -74 -45 -27 0 -57 -25 -45 -37 11 -12 -25 -41 -45 -36 -13 4 -19 0 -19
-11 0 -9 -7 -16 -15 -16 -8 0 -15 9 -15 20 0 11 -4 20 -10 20 -5 0 -10 -17
-10 -37 0 -46 -11 -65 -36 -63 -31 4 -40 0 -26 -9 20 -12 -123 -134 -149 -126
-14 5 -19 1 -19 -14 0 -11 -10 -27 -22 -35 -20 -14 -24 -13 -59 15 -22 17 -65
55 -96 85 -32 29 -64 54 -70 54 -7 0 -13 3 -13 8 0 4 -9 12 -19 17 -38 20
-191 149 -191 162 0 7 -5 13 -10 13 -13 0 -57 31 -136 95 -34 28 -99 79 -144
115 -84 65 -165 129 -236 185 -20 17 -49 40 -63 52 -83 69 -166 137 -236 192
-44 35 -96 76 -115 91 -19 16 -84 68 -145 116 -60 48 -166 133 -235 189 -69
56 -194 157 -279 226 -85 68 -162 131 -173 139 -18 15 -18 44 -17 740 0 399 4
742 7 763 4 21 5 82 2 135 -6 99 -4 125 9 117 4 -2 8 2 8 10 0 8 -4 15 -9 15
-9 0 -11 73 -2 83 10 10 57 -15 87 -46z m5943 -2173 c-2 -6 -78 -49 -168 -94
-89 -46 -183 -94 -208 -107 l-45 -23 -2 778 c-3 716 -4 778 -20 790 -12 8 -64
12 -175 12 -87 0 -158 3 -158 8 0 4 55 66 122 137 220 235 451 478 553 583
l100 103 3 -1088 c1 -598 0 -1093 -2 -1099z m-5716 -1867 c99 -24 167 -81 209
-178 39 -90 36 -179 -10 -270 -25 -51 -110 -124 -166 -143 -58 -20 -382 -23
-447 -4 -131 38 -226 178 -213 317 12 142 114 259 244 281 79 13 323 11 383
-3z m1060 8 c0 -2 -16 -31 -35 -65 -19 -34 -35 -66 -35 -71 0 -6 -11 -21 -25
-34 -23 -23 -31 -25 -130 -25 l-105 0 0 -210 0 -210 -90 0 -90 0 -2 208 -3
207 -117 3 c-65 1 -118 7 -118 12 0 9 56 118 85 165 12 19 24 20 339 21 179 1
326 0 326 -1z m662 -28 c62 -30 115 -83 150 -149 19 -35 23 -59 23 -128 0 -74
-4 -92 -29 -142 -33 -66 -73 -107 -136 -140 -42 -21 -58 -23 -243 -26 -231 -4
-268 4 -344 72 -68 62 -97 123 -101 219 -5 86 3 114 55 193 72 111 145 135
399 131 163 -3 173 -4 226 -30z m984 2 c107 -51 156 -187 104 -289 -17 -33
-66 -80 -83 -80 -3 0 -18 -5 -32 -10 l-26 -10 20 -29 c11 -16 48 -59 82 -96
33 -37 58 -69 56 -72 -5 -4 -146 -7 -183 -4 -6 1 -39 39 -75 86 l-64 85 -167
0 -168 0 0 -84 c0 -96 3 -93 -91 -88 l-59 4 2 156 3 157 305 2 c297 3 305 3
323 24 22 28 22 44 -3 69 -19 19 -33 20 -314 20 -162 0 -297 4 -300 8 -7 12
87 171 103 174 8 2 129 2 270 0 230 -3 260 -5 297 -23z m-4187 -18 c20 -21 49
-70 66 -107 65 -150 136 -294 146 -294 6 0 27 37 48 83 105 225 150 314 170
332 24 20 127 33 175 21 34 -8 74 -53 82 -91 3 -16 35 -130 70 -253 35 -123
64 -232 64 -243 0 -17 -8 -19 -100 -19 -55 0 -100 3 -100 6 0 3 -14 58 -31
122 -18 65 -35 133 -40 152 -18 81 -35 131 -44 132 -10 0 -17 -17 -95 -232
-23 -63 -46 -128 -52 -143 -6 -16 -26 -40 -45 -54 -29 -22 -45 -27 -102 -27
-59 -1 -72 3 -103 26 -22 17 -42 44 -51 70 -9 24 -34 93 -55 153 -22 61 -46
126 -54 145 -8 19 -18 44 -22 55 -11 28 -36 -41 -85 -239 -22 -87 -42 -160
-43 -162 -6 -5 -197 -9 -202 -3 -3 3 5 41 18 85 14 43 48 165 76 269 47 171
55 193 86 223 32 30 37 32 110 32 77 0 77 0 113 -39z m5099 -21 c14 -38 -4
-52 -18 -15 -9 23 -6 45 5 45 1 0 8 -13 13 -30z m92 15 c0 -8 7 -15 16 -15 10
0 14 -6 11 -14 -3 -7 0 -19 6 -25 9 -10 9 -12 -3 -9 -9 2 -15 -4 -15 -17 0
-11 -6 -20 -13 -20 -6 0 -12 -4 -11 -9 1 -15 -24 -26 -63 -26 -41 0 -49 6 -38
34 4 13 23 24 50 30 24 6 46 18 48 26 3 12 2 12 -8 3 -10 -9 -17 -7 -32 7 -23
21 -15 49 8 29 11 -9 14 -8 14 5 0 9 7 16 15 16 8 0 15 -7 15 -15z m-220 -20
c0 -8 -4 -17 -10 -20 -6 -4 -10 5 -10 20 0 15 4 24 10 20 6 -3 10 -12 10 -20z
m360 -5 c0 -10 5 -22 11 -25 6 -4 9 0 7 10 -2 10 3 20 10 22 7 3 12 -4 12 -16
0 -22 14 -28 25 -11 11 18 26 0 16 -18 -5 -9 -10 -21 -11 -27 -1 -5 -6 -21
-11 -34 -7 -17 -5 -26 6 -35 22 -16 9 -49 -16 -41 -15 5 -18 3 -12 -12 3 -10
-15 4 -41 30 -26 27 -45 55 -42 62 3 8 0 12 -7 9 -7 -2 -21 2 -32 10 -19 14
-19 15 -2 21 9 4 17 12 17 18 0 14 53 64 63 60 4 -2 7 -13 7 -23z m-430 0 c0
-5 -5 -10 -11 -10 -5 0 -7 5 -4 10 3 6 8 10 11 10 2 0 4 -4 4 -10z m1460 -6
c0 -8 -4 -12 -10 -9 -5 3 -10 10 -10 16 0 5 5 9 10 9 6 0 10 -7 10 -16z
m-1540 -53 c-10 -25 -9 -34 4 -53 19 -26 21 -42 4 -32 -6 4 -17 -1 -24 -10
-11 -15 -13 -14 -19 14 -6 29 -9 31 -22 17 -13 -13 -13 -17 3 -36 10 -11 24
-21 31 -21 18 0 16 -10 -4 -26 -16 -12 -15 -13 14 -14 17 0 35 -5 39 -11 4 -7
-2 -9 -17 -7 -16 2 -30 -5 -42 -20 -21 -25 -16 -52 8 -52 10 0 15 -9 15 -26 0
-26 -1 -26 -25 -10 -32 21 -38 20 -30 -5 4 -11 4 -32 0 -47 -5 -20 -8 -23 -16
-11 -5 7 -6 26 -3 41 3 15 -1 39 -10 57 -21 39 -21 134 -1 155 8 8 15 22 15
31 0 8 7 18 15 21 8 4 12 10 9 15 -6 11 54 74 63 66 3 -4 0 -20 -7 -36z m941
-2 c-5 -13 -10 -19 -10 -12 -1 15 10 45 15 40 3 -2 0 -15 -5 -28z m-41 -18 c0
-16 6 -31 15 -35 25 -9 17 -25 -12 -22 -27 3 -41 23 -42 64 -1 16 5 22 19 22
15 0 20 -7 20 -29z m-760 9 c0 -5 -2 -10 -4 -10 -3 0 -8 5 -11 10 -3 6 -1 10
4 10 6 0 11 -4 11 -10z m-70 -80 c0 -5 -2 -10 -4 -10 -3 0 -8 5 -11 10 -3 6
-1 10 4 10 6 0 11 -4 11 -10z m952 -14 c4 -19 1 -23 -16 -21 -29 3 -28 3 -16
25 14 27 27 25 32 -4z m-112 -16 c0 -11 -4 -20 -10 -20 -5 0 -10 9 -10 20 0
11 5 20 10 20 6 0 10 -9 10 -20z m575 11 c3 -5 1 -12 -5 -16 -5 -3 -10 1 -10
9 0 18 6 21 15 7z m-531 -48 c2 -31 -3 -43 -21 -56 l-23 -18 7 48 c5 46 20 79
30 69 3 -3 6 -22 7 -43z m251 9 c-9 -9 -35 8 -35 24 0 16 2 16 20 -1 11 -10
18 -20 15 -23z m275 -34 c0 -5 -7 -8 -15 -8 -8 0 -15 6 -15 14 0 8 -3 23 -6
33 -4 13 0 11 15 -7 11 -14 21 -28 21 -32z m-892 22 c7 -11 10 -20 6 -20 -7 0
-34 27 -34 34 0 13 16 5 28 -14z m657 0 c3 -5 2 -10 -4 -10 -5 0 -13 5 -16 10
-3 6 -2 10 4 10 5 0 13 -4 16 -10z m-677 -29 c3 -8 -1 -12 -9 -9 -7 2 -15 10
-17 17 -3 8 1 12 9 9 7 -2 15 -10 17 -17z m1472 -27 c0 -19 -4 -34 -8 -34 -5
0 -9 18 -9 40 0 21 4 37 9 34 4 -3 8 -21 8 -40z m-2050 9 c0 -5 -5 -15 -10
-23 -8 -12 -10 -11 -10 8 0 12 5 22 10 22 6 0 10 -3 10 -7z m680 -19 c0 -17
-10 -17 -32 0 -25 18 -22 24 7 18 14 -2 25 -11 25 -18z m-635 -10 c32 -13 66
-104 38 -104 -8 0 -12 4 -9 9 4 5 -2 7 -12 4 -13 -3 -21 5 -30 30 -12 33 -16
67 -8 67 2 0 12 -3 21 -6z m845 -14 c0 -5 -4 -10 -10 -10 -5 0 -10 5 -10 10 0
6 5 10 10 10 6 0 10 -4 10 -10z m-250 -10 c0 -5 -5 -10 -11 -10 -5 0 -7 5 -4
10 3 6 8 10 11 10 2 0 4 -4 4 -10z m-65 -10 c3 -5 -1 -10 -9 -10 -9 0 -16 5
-16 10 0 6 4 10 9 10 6 0 13 -4 16 -10z m295 -18 c0 -4 -9 -13 -20 -19 -20
-13 -37 -2 -25 17 7 12 45 14 45 2z m697 -28 c-3 -3 -12 -4 -19 -1 -8 3 -5 6
6 6 11 1 17 -2 13 -5z m-1537 -33 c0 -18 -18 -21 -30 -6 -10 13 -9 15 9 15 11
0 21 -4 21 -9z m445 -11 c-3 -5 4 -23 16 -39 22 -31 18 -57 -8 -46 -18 6 -53
-21 -53 -42 0 -7 8 -13 17 -13 9 0 14 -3 10 -6 -11 -11 -107 7 -107 21 0 7 -7
16 -16 19 -9 3 -14 13 -10 21 6 17 -10 30 -19 15 -12 -19 -25 0 -15 21 6 11 8
23 5 28 -9 16 32 23 88 16 42 -5 56 -3 66 9 13 16 36 12 26 -4z m-389 -5 c17
-13 17 -14 2 -15 -10 0 -18 5 -18 11 0 5 -4 7 -10 4 -5 -3 -10 -15 -10 -25 0
-10 -6 -20 -12 -23 -7 -2 -10 -8 -6 -12 4 -4 15 -2 23 5 14 12 15 10 9 -16 -4
-16 -8 -31 -10 -33 -7 -8 -56 23 -66 43 -8 15 -6 23 13 37 13 10 30 19 37 19
6 0 12 5 12 10 0 14 13 12 36 -5z m538 -24 c-7 -40 -29 -81 -44 -81 -6 0 -10
10 -10 23 0 17 -2 19 -9 8 -8 -12 -12 -12 -25 -2 -18 15 -20 39 -6 61 7 11 11
9 19 -13 9 -24 13 -26 32 -17 12 7 18 17 15 27 -8 19 -1 30 19 30 12 0 14 -8
9 -36z m-372 -83 c-15 -37 -34 -49 -47 -28 -4 7 -12 7 -25 0 -20 -11 -50 -4
-50 11 0 5 9 9 20 9 12 0 20 6 19 13 -3 25 1 37 14 37 7 0 20 9 30 21 l18 20
18 -22 c17 -21 17 -26 3 -61z m1258 57 c0 -8 -2 -15 -4 -15 -2 0 -6 7 -10 15
-3 8 -1 15 4 15 6 0 10 -7 10 -15z m-673 -47 c-3 -7 -5 -2 -5 12 0 14 2 19 5
13 2 -7 2 -19 0 -25z m59 23 c-4 -5 0 -11 6 -14 7 -2 10 -8 6 -12 -4 -4 -11
-4 -17 0 -14 8 -14 35 0 35 5 0 8 -4 5 -9z m-791 -41 c3 -5 -3 -10 -15 -10
-12 0 -18 5 -15 10 3 6 10 10 15 10 5 0 12 -4 15 -10z m-3402 -645 c-2 -121 0
-239 3 -262 l7 -43 138 0 c122 0 139 -2 147 -17 6 -11 6 -28 1 -41 -9 -22 -9
-22 -206 -20 l-198 3 -3 290 c-1 160 0 296 3 303 3 9 21 12 57 10 l53 -3 -2
-220z m497 10 c5 -197 6 -213 28 -251 32 -55 74 -78 142 -78 70 0 114 25 140
79 17 35 20 62 20 186 0 79 3 175 7 212 l6 68 51 -3 51 -3 3 -165 c5 -274 -23
-361 -133 -414 -50 -23 -71 -27 -149 -27 -102 0 -162 19 -208 68 -53 56 -58
86 -58 325 l0 219 48 -3 47 -3 5 -210z m781 100 c37 -60 73 -110 79 -110 6 0
41 50 78 110 l67 110 59 3 c75 4 78 13 -69 -197 -37 -51 -64 -98 -62 -105 3
-6 37 -58 77 -116 40 -58 84 -120 97 -139 12 -19 23 -38 23 -42 0 -5 -24 -9
-54 -9 -53 0 -55 1 -89 48 -19 26 -41 61 -50 77 -8 17 -29 49 -46 72 -37 50
-53 48 -83 -11 -11 -22 -41 -74 -65 -113 l-45 -73 -54 0 c-31 0 -54 4 -54 10
0 6 43 73 95 149 52 77 95 145 94 152 0 8 -10 28 -22 45 -74 107 -157 235
-157 244 0 7 21 10 57 8 l56 -3 68 -110z m599 -100 c6 -235 13 -267 71 -302
48 -29 90 -36 141 -23 47 13 84 42 101 80 7 15 14 114 17 240 l5 215 50 0 50
0 3 -190 c4 -231 -4 -276 -59 -338 -52 -60 -111 -80 -231 -79 -77 1 -95 5
-139 28 -102 56 -119 108 -119 374 0 108 3 200 7 204 4 4 28 6 53 4 l45 -3 5
-210z m1000 185 c49 -28 90 -87 90 -133 0 -50 -40 -104 -106 -143 -17 -10 -15
-14 19 -49 35 -36 63 -106 93 -228 l6 -28 -53 3 -53 3 -24 75 c-49 154 -63
169 -167 178 -79 6 -77 9 -79 -141 l-1 -112 -52 -3 -53 -3 -1 138 c-1 76 -2
209 -4 295 -3 139 -1 159 13 168 10 6 79 9 172 8 144 -3 158 -5 200 -28z m287
21 c9 -6 27 -37 111 -191 19 -36 39 -69 43 -75 14 -14 31 9 100 138 35 65 72
123 82 128 10 6 38 9 63 7 l45 -3 -115 -174 -115 -173 -3 -127 -3 -126 -45 0
c-42 0 -45 2 -51 30 -4 17 -7 72 -8 124 l-1 94 -82 134 c-46 74 -88 143 -95
155 -6 12 -19 25 -27 30 -9 5 -16 15 -16 23 0 11 13 15 54 14 30 -1 58 -4 63
-8z"/>
<path d="M2727 7199 c7 -7 15 -10 18 -7 3 3 -2 9 -12 12 -14 6 -15 5 -6 -5z"/>
<path d="M2920 6946 c0 -18 10 -25 26 -19 20 7 17 20 -6 26 -12 3 -20 0 -20
-7z"/>
<path d="M3020 6900 c0 -5 7 -10 15 -10 8 0 15 5 15 10 0 6 -7 10 -15 10 -8 0
-15 -4 -15 -10z"/>
<path d="M3067 6903 c-10 -10 6 -41 24 -46 21 -6 26 8 7 16 -8 3 -5 6 5 6 10
1 16 5 13 10 -7 10 -43 21 -49 14z"/>
<path d="M3005 6850 c3 -5 11 -10 16 -10 6 0 7 5 4 10 -3 6 -11 10 -16 10 -6
0 -7 -4 -4 -10z"/>
<path d="M5335 4540 c-3 -5 1 -10 9 -10 9 0 16 5 16 10 0 6 -4 10 -9 10 -6 0
-13 -4 -16 -10z"/>
<path d="M5252 4515 c0 -16 2 -22 5 -12 2 9 2 23 0 30 -3 6 -5 -1 -5 -18z"/>
<path d="M4715 4350 c-3 -5 -1 -10 4 -10 6 0 11 5 11 10 0 6 -2 10 -4 10 -3 0
-8 -4 -11 -10z"/>
<path d="M5305 4200 c-3 -5 -1 -10 4 -10 6 0 11 5 11 10 0 6 -2 10 -4 10 -3 0
-8 -4 -11 -10z"/>
<path d="M4821 3924 c0 -11 3 -14 6 -6 3 7 2 16 -1 19 -3 4 -6 -2 -5 -13z"/>
<path d="M2553 3100 c-92 -56 -82 -203 17 -252 27 -14 60 -18 150 -18 132 0
170 13 207 69 42 63 23 163 -39 201 -29 17 -50 20 -168 20 -116 0 -139 -3
-167 -20z"/>
<path d="M4197 3081 c-40 -37 -42 -42 -42 -98 0 -69 25 -111 79 -137 45 -21
251 -23 301 -2 50 21 75 68 75 140 0 55 -3 61 -39 97 l-39 39 -146 0 -147 0
-42 -39z"/>
<path d="M6731 3158 c0 -13 3 -17 6 -10 2 6 9 10 14 7 5 -4 6 1 3 9 -9 24 -24
19 -23 -6z"/>
<path d="M5590 2181 c-24 -7 -25 -10 -28 -108 l-3 -101 36 -6 c62 -12 145 12
182 51 38 40 41 65 13 110 -29 47 -127 74 -200 54z"/>
</g>
</svg>
